<svg xmlns="http://www.w3.org/2000/svg" viewBox="0 0 1440 320">
  <path fill="#ff5500" fill-opacity="1" d="M0,192L0,128L36.9,128L36.9,256L73.8,256L73.8,288L110.8,288L110.8,96L147.7,96L147.7,288L184.6,288L184.6,288L221.5,288L221.5,160L258.5,160L258.5,160L295.4,160L295.4,320L332.3,320L332.3,160L369.2,160L369.2,96L406.2,96L406.2,64L443.1,64L443.1,128L480,128L480,288L516.9,288L516.9,160L553.8,160L553.8,256L590.8,256L590.8,192L627.7,192L627.7,128L664.6,128L664.6,160L701.5,160L701.5,160L738.5,160L738.5,32L775.4,32L775.4,32L812.3,32L812.3,160L849.2,160L849.2,160L886.2,160L886.2,160L923.1,160L923.1,160L960,160L960,96L996.9,96L996.9,192L1033.8,192L1033.8,192L1070.8,192L1070.8,160L1107.7,160L1107.7,64L1144.6,64L1144.6,224L1181.5,224L1181.5,224L1218.5,224L1218.5,288L1255.4,288L1255.4,160L1292.3,160L1292.3,192L1329.2,192L1329.2,224L1366.2,224L1366.2,0L1403.1,0L1403.1,224L1440,224L1440,0L1403.1,0L1403.1,0L1366.2,0L1366.2,0L1329.2,0L1329.2,0L1292.3,0L1292.3,0L1255.4,0L1255.4,0L1218.5,0L1218.5,0L1181.5,0L1181.5,0L1144.6,0L1144.6,0L1107.7,0L1107.7,0L1070.8,0L1070.8,0L1033.8,0L1033.8,0L996.9,0L996.9,0L960,0L960,0L923.1,0L923.1,0L886.2,0L886.2,0L849.2,0L849.2,0L812.3,0L812.3,0L775.4,0L775.4,0L738.5,0L738.5,0L701.5,0L701.5,0L664.6,0L664.6,0L627.7,0L627.7,0L590.8,0L590.8,0L553.8,0L553.8,0L516.9,0L516.9,0L480,0L480,0L443.1,0L443.1,0L406.2,0L406.2,0L369.2,0L369.2,0L332.3,0L332.3,0L295.4,0L295.4,0L258.5,0L258.5,0L221.5,0L221.5,0L184.6,0L184.6,0L147.7,0L147.7,0L110.8,0L110.8,0L73.8,0L73.8,0L36.9,0L36.9,0L0,0L0,0Z"></path>
</svg>